<svg xmlns="http://www.w3.org/2000/svg" viewBox="0 0 320 240" fill="none">
  <rect width="320" height="240" rx="24" fill="#dbe9fb"/>
  <path d="M76 134c10-24 40-18 48-8s22 10 28 0 24-10 28 0 18 16 22 24 20 28 0 24c-22-4-72-18-92-24s-28-12-34-16z" fill="#4a72b8"/>
  <path d="M204 108c0 22-10 24-20 24s-28-10-30-28 10-44 30-48 20 18 20 28 0 12 0 24z" fill="#2f4b80"/>
  <circle cx="206" cy="96" r="10" fill="#fff"/>
  <circle cx="206" cy="96" r="4" fill="#1b2b40"/>
  <path d="M116 118c-10-18-12-38 8-44s42 14 44 24 4 18-8 22-26 0-34-6-14-4-10 4 18 12 30 12 20-2 26 6 8 14 0 16-42 6-56 4-16-12-14-20 0-10 0-14z" fill="#5c82c8"/>
  <path d="M80 166c20-14 48-26 84-18 10 2 20 8 22 12" stroke="#254373" stroke-width="12" stroke-linecap="round"/>
</svg>
